<?xml version="1.0" encoding="UTF-8"?>
<svg xmlns="http://www.w3.org/2000/svg" xmlns:xlink="http://www.w3.org/1999/xlink" width="37pt" height="37pt" viewBox="0 0 37 37" version="1.1">
<g id="surface782">
<path style=" stroke:none;fill-rule:nonzero;fill:rgb(17.647059%,68.235294%,99.215686%);fill-opacity:1;" d="M 23.125 30.0625 C 23.125 32.617188 21.054688 34.6875 18.5 34.6875 C 15.945312 34.6875 13.875 32.617188 13.875 30.0625 C 13.875 27.507812 15.945312 25.4375 18.5 25.4375 C 21.054688 25.4375 23.125 27.507812 23.125 30.0625 Z M 23.125 30.0625 "/>
<path style=" stroke:none;fill-rule:nonzero;fill:rgb(17.647059%,68.235294%,99.215686%);fill-opacity:1;" d="M 0 2.3125 L 18.5 2.3125 L 18.5 32.375 L 0 32.375 Z M 0 2.3125 "/>
<path style=" stroke:none;fill-rule:nonzero;fill:rgb(14.509804%,51.372549%,93.72549%);fill-opacity:1;" d="M 18.5 2.3125 L 37 2.3125 L 37 32.375 L 18.5 32.375 Z M 18.5 2.3125 "/>
<path style=" stroke:none;fill-rule:nonzero;fill:rgb(63.529412%,89.411765%,95.686275%);fill-opacity:1;" d="M 4.625 2.3125 L 18.5 2.3125 L 18.5 27.75 L 4.625 27.75 Z M 4.625 2.3125 "/>
<path style=" stroke:none;fill-rule:nonzero;fill:rgb(21.176471%,78.431373%,96.470588%);fill-opacity:1;" d="M 18.5 2.3125 L 32.375 2.3125 L 32.375 27.75 L 18.5 27.75 Z M 18.5 2.3125 "/>
</g>
</svg>
